<svg width="96" height="96" viewBox="0 0 96 96" fill="none" xmlns="http://www.w3.org/2000/svg">
    <path d="M0 13C0 5.8203 5.8203 0 13 0V0V83C13 90.1797 7.1797 96 0 96V96V13Z" fill="#596420"/>
    <path d="M33.3334 52.1798L8.00004 68L8.00004 36L33.3334 52.1798Z" fill="#596420"/>
    <path d="M10 10.5955L22 19L22 2L10 10.5955Z" fill="#596420"/>
    <path d="M31.875 7.58427L20 15L20 0L31.875 7.58427Z" fill="#596420"/>
    <path d="M93.6073 46.6393C96.101 48.2193 96.0825 51.8637 93.5731 53.4184L26.1066 95.2167C23.4419 96.8676 20 94.9511 20 91.8164L20 7.26985C20 4.11701 23.4777 2.20353 26.1409 3.89102L93.6073 46.6393Z" fill="#596420"/>
    <path d="M13 0H20L24.5 10H9L13 0Z" fill="#596420"/>
</svg>
