<svg width="106" height="40" viewBox="0 0 106 40" fill="none" xmlns="http://www.w3.org/2000/svg">
	<g clip-path="url(#clip0_216_318)">
		<path
			d="M21.6403 2.14597C21.3392 1.50386 20.8619 0.96112 20.2643 0.581353C19.6668 0.201585 18.9737 0.000519468 18.2663 0.00171428C17.5589 0.00290909 16.8665 0.206315 16.2702 0.588099C15.6739 0.969882 15.1984 1.51423 14.8995 2.15736L0.443984 33.2393C0.107308 33.9633 -0.0419138 34.7608 0.0101198 35.558C0.0621533 36.3552 0.313762 37.1264 0.741674 37.8002C1.16959 38.4741 1.75998 39.0288 2.45826 39.413C3.15653 39.7973 3.94014 39.9987 4.73659 39.9987C5.64278 39.9987 6.52994 39.7379 7.29282 39.2473C8.0557 38.7568 8.66226 38.0569 9.04055 37.2309L10.1653 34.774L14.2548 25.9208L16.4329 21.238C16.602 20.8738 16.8714 20.5657 17.2094 20.3502C17.5474 20.1347 17.9398 20.0206 18.3403 20.0216C18.7408 20.0225 19.1327 20.1384 19.4697 20.3556C19.8066 20.5728 20.0746 20.8821 20.242 21.2471L22.3883 25.9208L26.4811 34.774L27.6479 37.2674C28.0302 38.0841 28.6363 38.7747 29.3955 39.2586C30.1546 39.7425 31.0354 39.9996 31.9348 39.9998C35.4068 39.9998 37.6984 36.377 36.2195 33.2267L21.6403 2.14597Z"
			fill="url(#paint0_linear_216_318)"
		/>
		<path
			d="M63.4369 26.7669C63.2316 26.4151 63.143 26.007 63.1838 25.6015C63.2245 25.1959 63.3927 24.8138 63.6639 24.5103C66.0822 21.8254 67.4238 18.3374 67.4299 14.7189C67.4299 6.61373 60.8378 0 52.7565 0H33.1469C31.9765 0 30.8541 0.466374 30.0265 1.29652C29.1989 2.12667 28.734 3.2526 28.734 4.42661C28.734 5.60062 29.1989 6.72654 30.0265 7.55669C30.8541 8.38684 31.9765 8.85322 33.1469 8.85322H52.7996C55.9606 8.85322 58.6143 11.3694 58.6529 14.5459C58.6915 17.7804 56.1252 20.3239 52.9109 20.3239H42.975C41.8046 20.3239 40.6822 20.7903 39.8546 21.6204C39.027 22.4506 38.5621 23.5765 38.5621 24.7505V24.9634C38.5621 26.1374 39.027 27.2634 39.8546 28.0935C40.6822 28.9237 41.8046 29.39 42.975 29.39H50.92C51.5262 29.3898 52.1218 29.5491 52.6474 29.852C53.173 30.1548 53.6102 30.5907 53.9153 31.116L57.5723 37.4087C58.0315 38.1977 58.6889 38.8521 59.479 39.3066C60.2691 39.7611 61.1641 39.9998 62.0749 39.9989C66.0963 39.9989 68.6001 35.6212 66.5707 32.143L63.4369 26.7669Z"
			fill="url(#paint1_linear_216_318)"
		/>
		<path
			d="M100.754 39.9989C99.3691 39.9991 98.0406 39.4489 97.0594 38.4687L86.1985 27.6151C85.9628 27.3793 85.6828 27.1928 85.3749 27.0661C85.0669 26.9395 84.7369 26.8753 84.4041 26.8773C84.0712 26.8794 83.7421 26.9475 83.4356 27.0778C83.1292 27.2082 82.8515 27.3981 82.6186 27.6367C82.1575 28.1095 81.8992 28.7446 81.8991 29.406V34.748C81.8991 36.1406 81.3475 37.4762 80.3659 38.461C79.3842 39.4457 78.0527 39.9989 76.6644 39.9989C75.9769 39.9991 75.296 39.8633 74.6608 39.5995C74.0256 39.3357 73.4484 38.949 72.9622 38.4614C72.476 37.9738 72.0903 37.3948 71.8272 36.7577C71.564 36.1206 71.4286 35.4377 71.4286 34.748V26.8728C71.4286 25.0612 72.144 23.3234 73.4183 22.0397L81.9036 13.5007L93.7769 1.54617C94.2597 1.06017 94.8333 0.67453 95.465 0.411362C96.0966 0.148194 96.7738 0.0126741 97.4578 0.0125732C102.082 0.0125732 104.402 5.61756 101.136 8.90336L93.1436 16.9266C92.7832 17.2894 92.5808 17.7807 92.5808 18.2928C92.5808 18.805 92.7832 19.2963 93.1436 19.6591L104.461 31.0444C107.752 34.3461 105.415 39.9989 100.754 39.9989Z"
			fill="url(#paint2_linear_216_318)"
		/>
		<path
			d="M81.899 5.2555C81.8989 6.74356 81.3112 8.171 80.2646 9.22556L73.0085 16.5327C72.8792 16.6647 72.7136 16.7551 72.5329 16.7922C72.3522 16.8294 72.1645 16.8116 71.9939 16.7412C71.8233 16.6708 71.6775 16.551 71.5752 16.397C71.4728 16.243 71.4186 16.0619 71.4194 15.8769V5.2555C71.4194 3.86227 71.9712 2.52611 72.9533 1.54094C73.9354 0.555781 75.2675 0.00232242 76.6564 0.00232242C77.3446 0.00157433 78.0262 0.1369 78.6622 0.400562C79.2982 0.664224 79.8762 1.05105 80.3631 1.53893C80.85 2.02681 81.2363 2.60617 81.4998 3.24388C81.7633 3.8816 81.899 4.56517 81.899 5.2555Z"
			fill="url(#paint3_linear_216_318)"
		/>
	</g>
	<defs>
		<linearGradient
			id="paint0_linear_216_318"
			x1="32.4989"
			y1="7.66443"
			x2="11.18"
			y2="44.4751"
			gradientUnits="userSpaceOnUse"
		>
			<stop stop-color="#FFCC19" />
			<stop offset="1" stop-color="#FF3B04" />
		</linearGradient>
		<linearGradient
			id="paint1_linear_216_318"
			x1="58.679"
			y1="1.16586"
			x2="42.1972"
			y2="29.6225"
			gradientUnits="userSpaceOnUse"
		>
			<stop stop-color="#FFCC19" />
			<stop offset="1" stop-color="#FF3B04" />
		</linearGradient>
		<linearGradient
			id="paint2_linear_216_318"
			x1="104.456"
			y1="3.23348"
			x2="81.1772"
			y2="43.4295"
			gradientUnits="userSpaceOnUse"
		>
			<stop stop-color="#FFCC19" />
			<stop offset="1" stop-color="#FF3B04" />
		</linearGradient>
		<linearGradient
			id="paint3_linear_216_318"
			x1="79.3021"
			y1="0.71732"
			x2="70.5161"
			y2="15.8874"
			gradientUnits="userSpaceOnUse"
		>
			<stop stop-color="#FFCC19" />
			<stop offset="1" stop-color="#FF3B04" />
		</linearGradient>
		<clipPath id="clip0_216_318">
			<rect width="106" height="40" fill="white" />
		</clipPath>
	</defs>
</svg>
