<?xml version="1.0" encoding="utf-8"?>
<svg xmlns="http://www.w3.org/2000/svg" width="791" height="146" viewBox="0 0 791 146" fill="none">
<path d="M0 36.5579L36.2249 0.333008H108.675L144.9 36.5579V72.7828H108.675V36.5579H36.2249V72.7828H1.01608e-06L0 36.5579Z" fill="#351791"/>
<path d="M36.2249 109.008V72.7828H108.675V109.008H36.2249Z" fill="#351791"/>
<path d="M36.2249 109.008H1.01608e-06V145.233H36.2249V109.008Z" fill="#351791"/>
<path d="M108.675 109.008V145.233H144.9V109.008H108.675Z" fill="#351791"/>
<path d="M743.927 134.17C737.314 134.17 731.101 132.973 725.286 130.578C719.585 128.184 714.625 124.935 710.407 120.83C706.188 116.612 702.882 111.709 700.488 106.122C698.093 100.422 696.896 94.3788 696.896 87.994C696.896 81.6093 698.093 75.6235 700.488 70.0368C702.882 64.3361 706.188 59.4335 710.407 55.329C714.625 51.1105 719.585 47.8041 725.286 45.4098C731.101 43.0155 737.314 41.8183 743.927 41.8183C750.768 41.8183 756.982 43.0155 762.568 45.4098C768.269 47.8041 773.172 51.1105 777.276 55.329C781.381 59.5475 784.516 64.4501 786.682 70.0368C788.963 75.6235 790.103 81.6093 790.103 87.994V93.1247H721.694C722.15 95.861 723.006 98.4834 724.26 100.992C725.628 103.5 727.281 105.723 729.219 107.661C731.272 109.486 733.552 110.968 736.06 112.108C738.568 113.134 741.191 113.647 743.927 113.647C747.804 113.647 750.939 113.134 753.333 112.108C755.842 110.968 757.894 109.771 759.49 108.517C761.2 107.034 762.568 105.324 763.595 103.386H789.248C787.423 109.087 784.573 114.217 780.697 118.778C778.986 120.716 776.991 122.597 774.711 124.422C772.431 126.246 769.808 127.899 766.844 129.381C763.88 130.863 760.459 132.003 756.583 132.802C752.82 133.714 748.602 134.17 743.927 134.17ZM764.45 78.5879C763.994 76.4216 763.195 74.3694 762.055 72.4311C760.915 70.4929 759.433 68.7827 757.609 67.3005C755.899 65.8183 753.846 64.6212 751.452 63.709C749.172 62.7969 746.663 62.3409 743.927 62.3409C738.34 62.3409 733.666 63.9941 729.903 67.3005C726.255 70.4929 723.804 74.2553 722.549 78.5879H764.45Z" fill="#351791"/>
<path d="M632.763 134.17C627.177 134.17 621.932 133.087 617.029 130.92C612.241 128.754 608.022 125.676 604.374 121.685C600.725 117.695 597.818 112.849 595.652 107.148C593.6 101.448 592.573 95.0629 592.573 87.994C592.573 80.9252 593.6 74.5404 595.652 68.8397C597.818 63.139 600.725 58.2934 604.374 54.3029C608.022 50.3124 612.241 47.234 617.029 45.0677C621.932 42.9015 627.177 41.8183 632.763 41.8183C637.552 41.8183 641.6 42.5594 644.906 44.0416C648.326 45.4098 651.177 46.949 653.457 48.6592C656.079 50.7114 658.303 52.9917 660.127 55.5H660.982V11.8896H684.925V131.604H660.982V120.488H660.127C658.303 122.996 656.079 125.277 653.457 127.329C651.177 129.039 648.326 130.578 644.906 131.946C641.6 133.429 637.552 134.17 632.763 134.17ZM638.749 113.647C645.248 113.647 650.55 111.424 654.654 106.977C658.873 102.531 660.982 96.2031 660.982 87.994C660.982 79.785 658.873 73.4572 654.654 69.0107C650.55 64.5642 645.248 62.3409 638.749 62.3409C632.706 62.3409 627.633 64.5642 623.528 69.0107C619.424 73.4572 617.372 79.785 617.372 87.994C617.372 96.2031 619.424 102.531 623.528 106.977C627.633 111.424 632.706 113.647 638.749 113.647Z" fill="#351791"/>
<path d="M527.585 134.17C521.999 134.17 516.754 133.087 511.852 130.92C507.063 128.754 502.844 125.676 499.196 121.685C495.547 117.695 492.64 112.849 490.474 107.148C488.422 101.448 487.395 95.0629 487.395 87.994C487.395 80.9252 488.422 74.5404 490.474 68.8397C492.64 63.139 495.547 58.2934 499.196 54.3029C502.844 50.3124 507.063 47.234 511.852 45.0677C516.754 42.9015 521.999 41.8183 527.585 41.8183C532.374 41.8183 536.422 42.5594 539.728 44.0416C543.148 45.4098 545.999 46.949 548.279 48.6592C550.901 50.7114 553.125 52.9917 554.949 55.5H555.804V44.3837H579.747V131.604H555.804V120.488H554.949C553.125 122.996 550.901 125.277 548.279 127.329C545.999 129.039 543.148 130.578 539.728 131.946C536.422 133.429 532.374 134.17 527.585 134.17ZM533.571 113.647C540.07 113.647 545.372 111.424 549.476 106.977C553.695 102.531 555.804 96.2031 555.804 87.994C555.804 79.785 553.695 73.4572 549.476 69.0107C545.372 64.5642 540.07 62.3409 533.571 62.3409C527.528 62.3409 522.455 64.5642 518.35 69.0107C514.246 73.4572 512.194 79.785 512.194 87.994C512.194 96.2031 514.246 102.531 518.35 106.977C522.455 111.424 527.528 113.647 533.571 113.647Z" fill="#351791"/>
<path d="M403.695 11.8896H427.638V76.8777H437.9L460.987 44.3837H487.496L459.277 84.5736L490.061 131.604H462.698L440.465 97.4002H427.638V131.604H403.695V11.8896Z" fill="#351791"/>
<path d="M336.095 44.3837H360.038V57.2102H360.893C361.919 54.4739 363.459 52.0796 365.511 50.0274C367.221 48.2031 369.501 46.5499 372.352 45.0677C375.202 43.4715 378.794 42.6734 383.126 42.6734H393.387V65.7613H380.561C374.062 65.7613 368.988 67.5285 365.34 71.063C361.805 74.5974 360.038 79.386 360.038 85.4287V131.604H336.095V44.3837Z" fill="#351791"/>
<path d="M241.98 11.8896H295.852L327.491 131.604H300.982L294.142 105.096H243.69L236.85 131.604H210.341L241.98 11.8896ZM288.156 81.1532L276.184 35.8326H261.648L249.676 81.1532H288.156Z" fill="#351791"/>
</svg>